REM DIRINDEX 1\2\4,1\2\5,1\2\6,1\3\7,1\3\8
REM DIRNAME cjc128,folder01,folder02,folder03,folder04,folder05,folder06,folder07
TITLE ""
FILE "046_Proficiency Test11.mp3" MP3
  TRACK 01 AUDIO
    TITLE "0:"
    INDEX 01 00:00:00
  TRACK 02 AUDIO
    TITLE "8:cjc128_4032"
    INDEX 01 00:00:25
  TRACK 03 AUDIO
    TITLE "0:"
    INDEX 01 00:02:53
  TRACK 04 AUDIO
    TITLE "8:cjc128_4033"
    INDEX 01 00:03:06
  TRACK 05 AUDIO
    TITLE "0:"
    INDEX 01 00:05:05
  TRACK 06 AUDIO
    TITLE "7:cjc128_4034"
    INDEX 01 00:05:63
  TRACK 07 AUDIO
    TITLE "0:"
    INDEX 01 00:08:70
  TRACK 08 AUDIO
    TITLE "8:cjc128_4035"
    INDEX 01 00:12:32
  TRACK 09 AUDIO
    TITLE "0:"
    INDEX 01 00:14:31
  TRACK 10 AUDIO
    TITLE "7:cjc128_4036"
    INDEX 01 00:15:11
  TRACK 11 AUDIO
    TITLE "0:"
    INDEX 01 00:17:33
  TRACK 12 AUDIO
    TITLE "8:cjc128_4037"
    INDEX 01 00:20:32
  TRACK 13 AUDIO
    TITLE "0:"
    INDEX 01 00:22:42
  TRACK 14 AUDIO
    TITLE "7:cjc128_4038"
    INDEX 01 00:23:36
  TRACK 15 AUDIO
    TITLE "0:"
    INDEX 01 00:28:35
  TRACK 16 AUDIO
    TITLE "8:cjc128_4039"
    INDEX 01 00:33:58
  TRACK 17 AUDIO
    TITLE "0:"
    INDEX 01 00:35:64
  TRACK 18 AUDIO
    TITLE "7:cjc128_4040"
    INDEX 01 00:36:52
  TRACK 19 AUDIO
    TITLE "0:"
    INDEX 01 00:41:30
  TRACK 20 AUDIO
    TITLE "8:cjc128_4041"
    INDEX 01 00:46:37
  TRACK 21 AUDIO
    TITLE "0:"
    INDEX 01 00:48:40
  TRACK 22 AUDIO
    TITLE "7:cjc128_4042"
    INDEX 01 00:49:20
  TRACK 23 AUDIO
    TITLE "0:"
    INDEX 01 00:53:27
  TRACK 24 AUDIO
    TITLE "8:cjc128_4043"
    INDEX 01 00:57:64
  TRACK 25 AUDIO
    TITLE "0:"
    INDEX 01 00:59:63
  TRACK 26 AUDIO
    TITLE "7:cjc128_4044"
    INDEX 01 01:00:43
  TRACK 27 AUDIO
    TITLE "0:"
    INDEX 01 01:04:48
  TRACK 28 AUDIO
    TITLE "8:cjc128_4045"
    INDEX 01 01:09:05
  TRACK 29 AUDIO
    TITLE "0:"
    INDEX 01 01:11:09
  TRACK 30 AUDIO
    TITLE "7:cjc128_4046"
    INDEX 01 01:11:62
  TRACK 31 AUDIO
    TITLE "0:"
    INDEX 01 01:16:26
  TRACK 32 AUDIO
    TITLE "8:cjc128_4047"
    INDEX 01 01:21:18
  TRACK 33 AUDIO
    TITLE "0:"
    INDEX 01 01:23:03
  TRACK 34 AUDIO
    TITLE "7:cjc128_4048"
    INDEX 01 01:23:56
  TRACK 35 AUDIO
    TITLE "0:"
    INDEX 01 01:27:46
  TRACK 36 AUDIO
    TITLE "8:cjc128_4049"
    INDEX 01 01:31:63
  TRACK 37 AUDIO
    TITLE "0:"
    INDEX 01 01:33:66
  TRACK 38 AUDIO
    TITLE "7:cjc128_4050"
    INDEX 01 01:34:50
  TRACK 39 AUDIO
    TITLE "0:"
    INDEX 01 01:39:15
  TRACK 40 AUDIO
    TITLE "8:cjc128_4051"
    INDEX 01 01:44:28
  TRACK 41 AUDIO
    TITLE "0:"
    INDEX 01 01:46:27
  TRACK 42 AUDIO
    TITLE "7:cjc128_4052"
    INDEX 01 01:47:05
  TRACK 43 AUDIO
    TITLE "0:"
    INDEX 01 01:50:53
